<?xml version="1.0" encoding="UTF-8" standalone="no"?>
<svg
   version="1.1"
   width="443.60303"
   height="159.0246"
   id="svg3030"
   sodipodi:docname="Node.js_logo_2015.svg"
   inkscape:version="1.1.1 (3bf5ae0d25, 2021-09-20)"
   xmlns:inkscape="http://www.inkscape.org/namespaces/inkscape"
   xmlns:sodipodi="http://sodipodi.sourceforge.net/DTD/sodipodi-0.dtd"
   xmlns="http://www.w3.org/2000/svg"
   xmlns:svg="http://www.w3.org/2000/svg">
  <sodipodi:namedview
     id="namedview939"
     pagecolor="#ffffff"
     bordercolor="#999999"
     borderopacity="1"
     inkscape:pageshadow="0"
     inkscape:pageopacity="0"
     inkscape:pagecheckerboard="0"
     showgrid="false"
     inkscape:object-paths="true"
     inkscape:snap-intersection-paths="true"
     inkscape:snap-smooth-nodes="true"
     inkscape:snap-midpoints="true"
     inkscape:zoom="1.4083056"
     inkscape:cx="307.81671"
     inkscape:cy="171.8377"
     inkscape:window-width="1920"
     inkscape:window-height="1058"
     inkscape:window-x="-8"
     inkscape:window-y="-8"
     inkscape:window-maximized="1"
     inkscape:current-layer="svg3030" />
  <defs
     id="defs3032">
    <inkscape:path-effect
       effect="powerclip"
       id="path-effect1364"
       is_visible="true"
       lpeversion="1"
       inverse="true"
       flatten="false"
       hide_clip="false"
       message="Use fill-rule evenodd on &lt;b&gt;fill and stroke&lt;/b&gt; dialog if no flatten result after convert clip to paths." />
    <clipPath
       clipPathUnits="userSpaceOnUse"
       id="clipPath1360">
      <rect
         style="display:none;fill:#00ffff;fill-rule:evenodd;stroke:#ff2727;stroke-width:0.377953;stroke-linecap:square;paint-order:fill markers stroke"
         id="rect1362"
         width="167.05988"
         height="229.61566"
         x="559.54718"
         y="482.76932" />
      <path
         id="lpe_path-effect1364"
         style="fill:#00ffff;fill-rule:evenodd;stroke:#ff2727;stroke-width:0.377953;stroke-linecap:square;paint-order:fill markers stroke"
         class="powerclip"
         d="M 110.94417,496.42131 H 564.54721 V 665.44592 H 110.94417 Z M 559.54718,482.76932 V 712.38498 H 726.60706 V 482.76932 Z" />
    </clipPath>
  </defs>
  <g
     transform="translate(-115.94417,-501.42131)"
     id="layer1"
     clip-path="url(#clipPath1360)"
     inkscape:path-effect="#path-effect1364">
    <path
       d="m 414.48046,501.42155 c -0.40947,0.005 -0.82364,0.10273 -1.18907,0.31708 -0.72963,0.42837 -1.18908,1.21508 -1.18908,2.06106 v 60.64254 c 0,0.59586 -0.27746,1.12831 -0.79271,1.42714 -0.51655,0.29958 -1.14689,0.29958 -1.6647,0 l -9.90893,-5.70755 c -1.47635,-0.85131 -3.27961,-0.8508 -4.75629,0 L 355.42323,582.992 c -1.47889,0.85309 -2.37815,2.49432 -2.37815,4.20126 v 45.66036 c 0,1.70566 0.90053,3.2675 2.37815,4.12211 l 39.55645,22.83018 c 1.47889,0.85334 3.2774,0.85334 4.75629,0 l 39.55645,-22.83018 c 1.47762,-0.85461 2.37815,-2.41645 2.37815,-4.12211 V 519.01981 c 0,-1.73162 -0.94492,-3.35667 -2.45742,-4.20139 l -23.54362,-13.15906 c -0.36972,-0.20623 -0.7796,-0.24225 -1.18907,-0.23768 z M 160.0191,558.4176 c -0.75434,0.0304 -1.46304,0.16234 -2.14033,0.55502 l -39.55646,22.83018 c -1.47394,0.85207 -2.37814,2.40402 -2.37814,4.12212 l 0.0791,61.2767 c 0,0.85233 0.43971,1.64377 1.18908,2.06131 0.73449,0.43961 1.64613,0.43961 2.37814,0 l 23.46435,-13.4764 c 1.48635,-0.88302 2.45741,-2.41898 2.45741,-4.12211 v -28.61687 c 0,-1.70694 0.89794,-3.27359 2.37815,-4.12212 l 9.9882,-5.78668 c 0.74548,-0.43099 1.54581,-0.63418 2.37814,-0.63418 0.81525,0 1.65329,0.20294 2.37815,0.63418 l 9.9882,5.78668 c 1.48016,0.84853 2.37814,2.41518 2.37814,4.12212 v 28.61687 c 0,1.70313 0.98076,3.24899 2.45742,4.12211 l 23.46435,13.4764 c 0.73691,0.43961 1.64727,0.43961 2.37814,0 0.72836,-0.41754 1.18907,-1.20898 1.18907,-2.06131 l 0.0791,-61.2767 c 0,-1.7181 -0.89418,-3.27005 -2.37814,-4.12212 L 162.6348,558.97262 c -0.66905,-0.39268 -1.38089,-0.52408 -2.14033,-0.55502 h -0.47563 z m 355.45319,0.55502 c -0.8264,-10e-4 -1.63617,0.20801 -2.37815,0.63417 l -39.55645,22.83018 c -1.47762,0.85334 -2.37814,2.41518 -2.37814,4.12212 v 45.66035 c 0,1.71683 0.96711,3.2736 2.45741,4.12212 l 39.23937,22.35455 c 1.44908,0.82747 3.21842,0.88936 4.67701,0.0786 l 23.78144,-13.23846 c 0.75466,-0.41856 1.26517,-1.20036 1.26834,-2.06106 0.005,-0.86095 -0.44392,-1.63261 -1.18907,-2.06106 l -39.79427,-22.83018 c -0.74515,-0.42489 -1.26834,-1.28584 -1.26834,-2.14045 v -14.26886 c 0,-0.85309 0.52953,-1.6349 1.26834,-2.06081 l 12.36635,-7.13468 c 0.73564,-0.42566 1.63933,-0.42566 2.37814,0 l 12.36635,7.13468 c 0.73881,0.42591 1.18907,1.20772 1.18907,2.06081 v 11.2568 c 0,0.85435 0.45026,1.63489 1.18907,2.0608 0.74198,0.42718 1.63934,0.42895 2.37815,0 l 23.70216,-13.79298 c 1.47128,-0.85461 2.37814,-2.42051 2.37814,-4.12211 v -11.01886 c 0,-1.70187 -0.90369,-3.26751 -2.37814,-4.12212 l -39.31864,-22.83018 c -0.74041,-0.4292 -1.55174,-0.63315 -2.37814,-0.63417 z m -118.27301,34.08673 c 0.20623,0 0.44899,0.0507 0.63417,0.15727 l 13.55542,7.848 c 0.36782,0.21308 0.63417,0.60551 0.63417,1.0304 v 15.69575 c 0,0.42616 -0.26381,0.81884 -0.63417,1.03066 l -13.55542,7.84774 c -0.36909,0.21055 -0.81998,0.21055 -1.18907,0 l -13.55542,-7.84774 c -0.36909,-0.21308 -0.63417,-0.6045 -0.63417,-1.03066 v -15.69575 c 0,-0.42489 0.26635,-0.8163 0.63417,-1.0304 l 13.55542,-7.84673 c 0.18518,-0.10654 0.34864,-0.15727 0.5549,-0.15727 z"
       id="path22"
       style="fill:#404137;fill-opacity:1;fill-rule:evenodd;stroke:none"
       inkscape:original-d="m 414.48046,501.42155 c -0.40947,0.005 -0.82364,0.10273 -1.18907,0.31708 -0.72963,0.42837 -1.18908,1.21508 -1.18908,2.06106 v 60.64254 c 0,0.59586 -0.27746,1.12831 -0.79271,1.42714 -0.51655,0.29958 -1.14689,0.29958 -1.6647,0 l -9.90893,-5.70755 c -1.47635,-0.85131 -3.27961,-0.8508 -4.75629,0 L 355.42323,582.992 c -1.47889,0.85309 -2.37815,2.49432 -2.37815,4.20126 v 45.66036 c 0,1.70566 0.90053,3.2675 2.37815,4.12211 l 39.55645,22.83018 c 1.47889,0.85334 3.2774,0.85334 4.75629,0 l 39.55645,-22.83018 c 1.47762,-0.85461 2.37815,-2.41645 2.37815,-4.12211 V 519.01981 c 0,-1.73162 -0.94492,-3.35667 -2.45742,-4.20139 l -23.54362,-13.15906 c -0.36972,-0.20623 -0.7796,-0.24225 -1.18907,-0.23768 z M 160.0191,558.4176 c -0.75434,0.0304 -1.46304,0.16234 -2.14033,0.55502 l -39.55646,22.83018 c -1.47394,0.85207 -2.37814,2.40402 -2.37814,4.12212 l 0.0791,61.2767 c 0,0.85233 0.43971,1.64377 1.18908,2.06131 0.73449,0.43961 1.64613,0.43961 2.37814,0 l 23.46435,-13.4764 c 1.48635,-0.88302 2.45741,-2.41898 2.45741,-4.12211 v -28.61687 c 0,-1.70694 0.89794,-3.27359 2.37815,-4.12212 l 9.9882,-5.78668 c 0.74548,-0.43099 1.54581,-0.63418 2.37814,-0.63418 0.81525,0 1.65329,0.20294 2.37815,0.63418 l 9.9882,5.78668 c 1.48016,0.84853 2.37814,2.41518 2.37814,4.12212 v 28.61687 c 0,1.70313 0.98076,3.24899 2.45742,4.12211 l 23.46435,13.4764 c 0.73691,0.43961 1.64727,0.43961 2.37814,0 0.72836,-0.41754 1.18907,-1.20898 1.18907,-2.06131 l 0.0791,-61.2767 c 0,-1.7181 -0.89418,-3.27005 -2.37814,-4.12212 L 162.6348,558.97262 c -0.66905,-0.39268 -1.38089,-0.52408 -2.14033,-0.55502 h -0.47563 z m 355.45319,0.55502 c -0.8264,-10e-4 -1.63617,0.20801 -2.37815,0.63417 l -39.55645,22.83018 c -1.47762,0.85334 -2.37814,2.41518 -2.37814,4.12212 v 45.66035 c 0,1.71683 0.96711,3.2736 2.45741,4.12212 l 39.23937,22.35455 c 1.44908,0.82747 3.21842,0.88936 4.67701,0.0786 l 23.78144,-13.23846 c 0.75466,-0.41856 1.26517,-1.20036 1.26834,-2.06106 0.005,-0.86095 -0.44392,-1.63261 -1.18907,-2.06106 l -39.79427,-22.83018 c -0.74515,-0.42489 -1.26834,-1.28584 -1.26834,-2.14045 v -14.26886 c 0,-0.85309 0.52953,-1.6349 1.26834,-2.06081 l 12.36635,-7.13468 c 0.73564,-0.42566 1.63933,-0.42566 2.37814,0 l 12.36635,7.13468 c 0.73881,0.42591 1.18907,1.20772 1.18907,2.06081 v 11.2568 c 0,0.85435 0.45026,1.63489 1.18907,2.0608 0.74198,0.42718 1.63934,0.42895 2.37815,0 l 23.70216,-13.79298 c 1.47128,-0.85461 2.37814,-2.42051 2.37814,-4.12211 v -11.01886 c 0,-1.70187 -0.90369,-3.26751 -2.37814,-4.12212 l -39.31864,-22.83018 c -0.74041,-0.4292 -1.55174,-0.63315 -2.37814,-0.63417 z m -118.27301,34.08673 c 0.20623,0 0.44899,0.0507 0.63417,0.15727 l 13.55542,7.848 c 0.36782,0.21308 0.63417,0.60551 0.63417,1.0304 v 15.69575 c 0,0.42616 -0.26381,0.81884 -0.63417,1.03066 l -13.55542,7.84774 c -0.36909,0.21055 -0.81998,0.21055 -1.18907,0 l -13.55542,-7.84774 c -0.36909,-0.21308 -0.63417,-0.6045 -0.63417,-1.03066 v -15.69575 c 0,-0.42489 0.26635,-0.8163 0.63417,-1.0304 l 13.55542,-7.84673 c 0.18518,-0.10654 0.34864,-0.15727 0.5549,-0.15727 z" />
    <path
       d="m 278.847,558.73468 c -0.82427,0 -1.63996,0.20801 -2.37814,0.63417 l -39.55645,22.75104 c -1.47889,0.85232 -2.37815,2.49584 -2.37815,4.20126 v 45.66035 c 0,1.70745 0.90022,3.26802 2.37815,4.12212 l 39.55645,22.83018 c 1.47889,0.8541 3.2774,0.8541 4.75629,0 l 39.55645,-22.83018 c 1.47635,-0.8541 2.37815,-2.41467 2.37815,-4.12212 v -45.66035 c 0,-1.70795 -0.89926,-3.34894 -2.37815,-4.20126 l -39.55645,-22.75104 c -0.73818,-0.42616 -1.55388,-0.63417 -2.37815,-0.63417 z m 236.54602,40.74629 c -0.15804,0 -0.33294,0 -0.47563,0.0786 l -7.61006,4.4392 c -0.28538,0.16235 -0.47563,0.46446 -0.47563,0.79271 v 8.71986 c 0,0.32825 0.19025,0.6291 0.47563,0.79272 l 7.61006,4.3598 c 0.28537,0.16488 0.58978,0.16488 0.87198,0 l 7.61006,-4.3598 c 0.28221,-0.16235 0.47563,-0.46447 0.47563,-0.79272 v -8.71986 c 0,-0.32825 -0.19329,-0.62935 -0.47563,-0.79271 l -7.61006,-4.4392 c -0.14104,-0.0837 -0.23819,-0.0786 -0.39635,-0.0786 z"
       id="path28"
       style="fill:#83cd29;fill-opacity:1;fill-rule:evenodd;stroke:none"
       inkscape:original-d="m 278.847,558.73468 c -0.82427,0 -1.63996,0.20801 -2.37814,0.63417 l -39.55645,22.75104 c -1.47889,0.85232 -2.37815,2.49584 -2.37815,4.20126 v 45.66035 c 0,1.70745 0.90022,3.26802 2.37815,4.12212 l 39.55645,22.83018 c 1.47889,0.8541 3.2774,0.8541 4.75629,0 l 39.55645,-22.83018 c 1.47635,-0.8541 2.37815,-2.41467 2.37815,-4.12212 v -45.66035 c 0,-1.70795 -0.89926,-3.34894 -2.37815,-4.20126 l -39.55645,-22.75104 c -0.73818,-0.42616 -1.55388,-0.63417 -2.37815,-0.63417 z m 236.54602,40.74629 c -0.15804,0 -0.33294,0 -0.47563,0.0786 l -7.61006,4.4392 c -0.28538,0.16235 -0.47563,0.46446 -0.47563,0.79271 v 8.71986 c 0,0.32825 0.19025,0.6291 0.47563,0.79272 l 7.61006,4.3598 c 0.28537,0.16488 0.58978,0.16488 0.87198,0 l 7.61006,-4.3598 c 0.28221,-0.16235 0.47563,-0.46447 0.47563,-0.79272 v -8.71986 c 0,-0.32825 -0.19329,-0.62935 -0.47563,-0.79271 l -7.61006,-4.4392 c -0.14104,-0.0837 -0.23819,-0.0786 -0.39635,-0.0786 z"
       sodipodi:nodetypes="sccssccccssccssccssccccssccs" />
  </g>
</svg>
