<?xml version="1.0" encoding="UTF-8" standalone="no"?>
<!-- Created with Inkscape (http://www.inkscape.org/) -->

<svg
   width="63.905098mm"
   height="76.574173mm"
   viewBox="0 0 63.905098 76.574171"
   version="1.1"
   id="svg5"
   inkscape:version="1.1.1 (3bf5ae0d25, 2021-09-20)"
   sodipodi:docname="boy in front of pc.svg"
   xmlns:inkscape="http://www.inkscape.org/namespaces/inkscape"
   xmlns:sodipodi="http://sodipodi.sourceforge.net/DTD/sodipodi-0.dtd"
   xmlns:xlink="http://www.w3.org/1999/xlink"
   xmlns="http://www.w3.org/2000/svg"
   xmlns:svg="http://www.w3.org/2000/svg">
  <sodipodi:namedview
     id="namedview7"
     pagecolor="#ffffff"
     bordercolor="#999999"
     borderopacity="1"
     inkscape:pageshadow="0"
     inkscape:pageopacity="0"
     inkscape:pagecheckerboard="0"
     inkscape:document-units="mm"
     showgrid="false"
     inkscape:object-nodes="true"
     inkscape:zoom="0.99776394"
     inkscape:cx="127.78574"
     inkscape:cy="225.50424"
     inkscape:window-width="1920"
     inkscape:window-height="1058"
     inkscape:window-x="-8"
     inkscape:window-y="-8"
     inkscape:window-maximized="1"
     inkscape:current-layer="layer1"
     inkscape:object-paths="true"
     inkscape:snap-intersection-paths="false"
     inkscape:snap-smooth-nodes="false"
     inkscape:snap-midpoints="false"
     inkscape:snap-bbox="true"
     inkscape:bbox-nodes="false"
     inkscape:snap-bbox-edge-midpoints="true" />
  <defs
     id="defs2">
    <linearGradient
       inkscape:collect="always"
       id="linearGradient52406">
      <stop
         style="stop-color:#3c9c6e;stop-opacity:1"
         offset="0"
         id="stop52402" />
      <stop
         style="stop-color:#1e4c36;stop-opacity:1"
         offset="1"
         id="stop52404" />
    </linearGradient>
    <linearGradient
       inkscape:collect="always"
       id="linearGradient52382">
      <stop
         style="stop-color:#79b9dc;stop-opacity:1;"
         offset="0"
         id="stop52378" />
      <stop
         style="stop-color:#79b9dc;stop-opacity:0;"
         offset="1"
         id="stop52380" />
    </linearGradient>
    <rect
       x="181.15508"
       y="121.27117"
       width="30.693632"
       height="21.172342"
       id="rect76567" />
    <rect
       x="184.28708"
       y="121.64701"
       width="24.053785"
       height="18.792021"
       id="rect36921" />
    <linearGradient
       id="linearGradient17297"
       inkscape:swatch="solid">
      <stop
         style="stop-color:#995d55;stop-opacity:1;"
         offset="0"
         id="stop17295" />
    </linearGradient>
    <linearGradient
       inkscape:collect="always"
       xlink:href="#linearGradient52382"
       id="linearGradient52384"
       x1="203.72633"
       y1="201.05676"
       x2="277.09766"
       y2="201.05676"
       gradientUnits="userSpaceOnUse" />
    <linearGradient
       inkscape:collect="always"
       xlink:href="#linearGradient52406"
       id="linearGradient52408"
       x1="262.08313"
       y1="227.12868"
       x2="325.70377"
       y2="285.78571"
       gradientUnits="userSpaceOnUse" />
    <filter
       inkscape:collect="always"
       style="color-interpolation-filters:sRGB"
       id="filter62764"
       x="-0.032643143"
       y="-0.030253737"
       width="1.0652863"
       height="1.0605075">
      <feGaussianBlur
         inkscape:collect="always"
         stdDeviation="1.4526076"
         id="feGaussianBlur62766" />
    </filter>
    <linearGradient
       inkscape:collect="always"
       xlink:href="#linearGradient52406"
       id="linearGradient63324"
       gradientUnits="userSpaceOnUse"
       x1="262.08313"
       y1="227.12868"
       x2="321.98312"
       y2="283.3053" />
  </defs>
  <g
     inkscape:label="Layer 1"
     inkscape:groupmode="layer"
     id="layer1"
     transform="translate(-27.115465,-20.383163)">
    <rect
       style="opacity:1;fill:none;fill-opacity:1;fill-rule:evenodd;stroke:#1e4c36;stroke-width:0;stroke-linecap:round;stroke-miterlimit:4;stroke-dasharray:none;stroke-opacity:1;paint-order:markers stroke fill"
       id="rect63559"
       width="99.306976"
       height="106.99709"
       x="9.414526"
       y="5.1717048" />
    <g
       id="g63700"
       transform="translate(-0.32044764,-4.5140882)">
      <path
         style="opacity:1;fill:#332220;fill-opacity:1;fill-rule:evenodd;stroke:#190300;stroke-width:0.2;stroke-linecap:round;stroke-linejoin:round;stroke-miterlimit:4;stroke-dasharray:none;stroke-opacity:1;paint-order:fill markers stroke"
         d="m 28.484369,56.397719 2.75433,22.086286 3.769298,0.103269 43.062934,-13.734701 C 63.07666,49.955782 49.92205,50.568075 28.484369,56.397719 Z"
         id="path10334"
         sodipodi:nodetypes="ccccc" />
      <path
         style="fill:#27903b;fill-opacity:1;fill-rule:evenodd;stroke:#003f0c;stroke-width:0.2;stroke-linecap:square;stroke-miterlimit:4;stroke-dasharray:none;stroke-opacity:1;paint-order:fill markers stroke"
         d="m 49.800576,80.219845 c -1.063937,-0.533078 -2.576102,-0.45255 -3.606161,-0.370791 -2.475092,0.564881 -2.769887,1.879546 -2.013928,2.928111 1.109886,1.539486 4.757635,3.408329 6.600769,4.333243 0.78134,0.392089 1.786671,0.631741 2.659806,0.588602 0.831996,-0.04111 1.537196,-0.257254 2.179662,-0.787484 0.283657,-0.234103 0.657448,-0.565392 0.596648,-0.928116 -0.153473,-0.915607 -1.557779,-1.041676 -2.187704,-1.723647 -0.594677,-0.643811 -0.863364,-1.544292 -1.458471,-2.187705 -0.801459,-0.866515 -1.71534,-1.323471 -2.770621,-1.852213 z"
         id="path1784"
         sodipodi:nodetypes="scssssssss" />
      <path
         style="fill:#27903b;fill-opacity:1;fill-rule:evenodd;stroke:#003f0c;stroke-width:0.2;stroke-linecap:square;stroke-miterlimit:4;stroke-dasharray:none;stroke-opacity:1;paint-order:fill markers stroke"
         d="m 58.617688,77.104023 c -1.063937,-0.533078 -2.576102,-0.45255 -3.606161,-0.370791 -2.475092,0.564881 -2.769887,1.879546 -2.013928,2.928111 1.109886,1.539486 4.757635,3.408329 6.600769,4.333243 0.78134,0.392089 1.786671,0.631741 2.659806,0.588602 0.831996,-0.04111 1.537196,-0.257254 2.179662,-0.787484 0.283657,-0.234103 0.657448,-0.565392 0.596648,-0.928116 -0.153473,-0.915607 -1.557779,-1.041676 -2.187704,-1.723647 -0.594677,-0.643811 -0.863364,-1.544292 -1.458471,-2.187705 -0.801459,-0.866515 -1.71534,-1.323471 -2.770621,-1.852213 z"
         id="path8604"
         sodipodi:nodetypes="scssssssss" />
      <path
         style="fill:#fdae99;fill-opacity:1;fill-rule:evenodd;stroke:#bb4000;stroke-width:0.2;stroke-linecap:square;stroke-miterlimit:4;stroke-dasharray:none;stroke-opacity:1;paint-order:fill markers stroke"
         d="m 50.158374,82.105041 c -0.525559,0.445599 -0.93078,1.120052 -1.007853,1.804765 -0.05282,0.469244 -0.0685,1.289207 0.398454,1.359432 1.500476,0.225655 2.59157,1.285426 3.445457,1.429748 1.198803,0.20262 1.706905,-0.04683 2.132904,-0.796909 0.27823,-0.489895 0.174496,-1.200691 0.257823,-1.757885 0.08048,-0.538199 0.324924,-1.598139 0.656279,-2.20322 0.530024,-0.967867 -1.789815,-0.763162 -2.882935,-0.9141 -1.052673,-0.145353 -2.18959,0.390947 -3.000129,1.078169 z"
         id="path2825"
         sodipodi:nodetypes="sssssssss" />
      <path
         style="fill:#fdae99;fill-opacity:1;fill-rule:evenodd;stroke:#bb4000;stroke-width:0.2;stroke-linecap:square;stroke-miterlimit:4;stroke-dasharray:none;stroke-opacity:1;paint-order:fill markers stroke"
         d="m 58.975486,78.989219 c -0.525559,0.445599 -0.93078,1.120052 -1.007853,1.804765 -0.05282,0.469244 -0.0685,1.289207 0.398454,1.359432 1.500476,0.225655 2.59157,1.285426 3.445457,1.429748 1.198803,0.20262 1.706905,-0.04683 2.132904,-0.796909 0.27823,-0.489895 0.174496,-1.200691 0.257823,-1.757885 0.08048,-0.538199 0.324924,-1.598139 0.656279,-2.20322 0.530024,-0.967867 -1.789815,-0.763162 -2.882935,-0.9141 -1.052673,-0.145353 -2.18959,0.390947 -3.000129,1.078169 z"
         id="path8606"
         sodipodi:nodetypes="sssssssss" />
      <path
         style="opacity:1;fill:#fb4d35;fill-opacity:1;fill-rule:evenodd;stroke:#760000;stroke-width:0.2;stroke-linecap:round;stroke-linejoin:round;stroke-miterlimit:4;stroke-dasharray:none;stroke-opacity:1;paint-order:fill markers stroke"
         d="m 57.417244,75.747392 -0.577488,6.408093 c -1.834314,2.206162 -6.783439,1.476279 -7.167644,-1.296306 0,0 0.604452,-6.743505 0.154903,-16.471315 6.107996,-4.667657 12.524075,-3.555557 16.677852,-2.168636 4.153777,1.386921 6.764083,6.609178 6.764083,6.609178 l -8.364744,8.984353 0.646352,2.380301 c -1.622545,2.316761 -6.551517,0.888289 -6.683144,-0.782746 l 0.150493,-3.249849 z"
         id="path23648"
         sodipodi:nodetypes="ccccccccccc" />
      <path
         id="path27975"
         style="opacity:1;fill:#9a5e56;fill-opacity:1;fill-rule:evenodd;stroke:#4e0900;stroke-width:0.755906;stroke-linecap:round;stroke-linejoin:round;stroke-miterlimit:4;stroke-dasharray:none;stroke-opacity:1;paint-order:fill markers stroke"
         d="m 243.56641,168.14258 c -0.41799,0.004 -0.83832,0.0701 -1.28321,0.19726 L 106.35156,201.125 c -1.87822,0.39013 -2.35405,1.12441 -2.26953,2.85742 l 2.76758,93.03711 c 0.0836,2.59615 0.0381,2.90061 2.1875,4.01758 l 40.15625,20.86914 c 2.2414,1.16474 2.67624,1.16099 4.82617,0.19141 l 5.49805,-2.48047 c 1.86481,-0.84099 2.0811,-0.77769 1.92578,-2.69336 l -0.2832,-3.49805 c -0.1409,-1.73767 -0.14988,-1.95655 -1.59766,-2.69336 l -39.34766,-20.15039 -0.97656,-51.91015 c 8.54245,-4.98818 22.02727,-8.94727 34.54492,-3.14258 l 28.64649,15.41015 c 1.43237,0.76833 2.7564,0.76826 4.34179,0.26563 L 332.8418,204.50781 245.73438,168.65625 c -0.78244,-0.35168 -1.47133,-0.52021 -2.16797,-0.51367 z"
         sodipodi:nodetypes="sccccccccccccccccccs"
         transform="scale(0.26458333)" />
      <path
         style="opacity:1;fill:#191a2b;fill-opacity:1;fill-rule:evenodd;stroke:#000614;stroke-width:0.2;stroke-linecap:round;stroke-linejoin:round;stroke-miterlimit:4;stroke-dasharray:none;stroke-opacity:1;paint-order:fill markers stroke"
         d="m 65.299994,51.6394 -21.819452,6.545834 c -0.319487,0.09585 -0.437182,0.96405 -0.0099,1.205989 l 6.434864,3.643838 c 0.763572,0.432384 0.993331,0.336816 1.770716,0.06285 L 74.095096,55.196975 67.207867,51.753361 C 66.397884,51.34837 66.116346,51.394494 65.299994,51.6394 Z"
         id="path13606"
         sodipodi:nodetypes="ssssscss" />
      <path
         style="opacity:1;fill:#313a4f;fill-opacity:1;fill-rule:evenodd;stroke:#000a21;stroke-width:0.2;stroke-linecap:round;stroke-linejoin:round;stroke-miterlimit:4;stroke-dasharray:none;stroke-opacity:1;paint-order:fill markers stroke"
         d="m 63.251913,53.183239 -17.194194,5.163423 5.834666,2.943148 17.245827,-5.783029 z"
         id="path15327" />
      <path
         style="opacity:1;fill:#fdae99;fill-opacity:1;fill-rule:evenodd;stroke:#bb4000;stroke-width:0.2;stroke-linecap:round;stroke-linejoin:round;stroke-miterlimit:4;stroke-dasharray:none;stroke-opacity:1;paint-order:fill markers stroke"
         d="M 55.861682,56.701433 54.182179,55.78866 c -1.537667,-0.150789 -2.330648,0.230342 -3.21296,0.547664 -0.743934,0.982538 -0.874404,1.877438 -0.255574,2.665296 1.802629,0.178587 2.879699,0.686973 3.614578,1.350901 z"
         id="path32583"
         sodipodi:nodetypes="cccccc" />
      <path
         style="opacity:1;fill:#599bbe;fill-opacity:1;fill-rule:evenodd;stroke:#001741;stroke-width:0.4;stroke-linecap:round;stroke-linejoin:round;stroke-miterlimit:4;stroke-dasharray:none;stroke-opacity:1;paint-order:markers stroke fill"
         d="m 83.902054,54.766355 c -0.04143,-0.0059 0.784716,-5.817604 0.122988,-7.269528 -0.656921,-1.441375 -3.904936,-2.387435 -4.857673,-2.204851 -4.353265,0.83427 -7.483583,0.744053 -11.279181,1.952672 -1.904553,0.811956 -3.419412,2.007969 -3.88023,3.05343 -0.989236,2.244285 -2.451845,5.882428 -4.057056,7.535192 -0.595724,0.613372 -2.393403,-1.27104 -3.783846,-1.16835 -1.359719,0.100421 -3.324845,1.809869 -2.847851,3.139938 0.56717,1.581519 3.776194,3.101546 6.754833,4.703641 3.270663,-1.949783 4.55026,-4.703641 4.55026,-4.703641 l -2.263677,7.22916 9.419812,5.403614 11.391403,-13.143926 z"
         id="path17451"
         sodipodi:nodetypes="csscsssscccccc" />
      <path
         style="fill:#39544b;fill-opacity:1;fill-rule:evenodd;stroke:#0a291e;stroke-width:0.2;stroke-linecap:square;stroke-miterlimit:4;stroke-dasharray:none;stroke-opacity:1;paint-order:fill markers stroke"
         d="m 61.479167,96.379085 c -0.522617,0.03932 -1.191008,0.401072 -1.523504,0.926163 -0.387454,0.611884 -0.314087,1.463139 -0.24772,2.433568 0.07934,1.160164 1.022248,1.646044 1.500648,1.616104 l 0.926853,0.0165 c 1.247689,-0.0108 1.62389,-1.0628 1.687574,-1.851638 0.08118,-1.005522 -0.08644,-2.239976 -0.843788,-2.906373 0,0 -0.628988,-0.299865 -1.500063,-0.234334 z"
         id="path16031"
         sodipodi:nodetypes="sssccsss" />
      <path
         style="opacity:1;fill:#39544b;fill-opacity:1;fill-rule:evenodd;stroke:#0a291e;stroke-width:0.2;stroke-linecap:round;stroke-linejoin:round;stroke-miterlimit:4;stroke-dasharray:none;stroke-opacity:1;paint-order:fill markers stroke"
         d="m 72.988384,83.468737 -12.684188,13.343942 2.667578,0.08682 c 0.877195,0.447861 0.808238,1.375673 0.856239,2.295975 l 11.626883,-13.82339 0.780295,0.0207 0.319889,-3.140364 c -1.396726,-0.150528 -2.168828,-0.296318 -3.566696,1.216321 z"
         id="path10332"
         sodipodi:nodetypes="ccccccccc" />
      <path
         style="opacity:1;fill:#39544b;fill-opacity:1;fill-rule:evenodd;stroke:#0a291e;stroke-width:0.2;stroke-linecap:round;stroke-linejoin:round;stroke-miterlimit:4;stroke-dasharray:none;stroke-opacity:1;paint-order:fill markers stroke"
         d="m 57.547667,87.01978 24.603971,2.564263 c 3.882726,0.454302 1.605906,2.949415 0.555814,3.221319 L 70.581925,91.56765 c -2.081269,-4.144421 -2.875601,-2.23787 -4.788634,-0.569273 l -8.272777,-0.896675 c -1.845131,0.0031 -4.102105,-3.532857 0.02715,-3.081922 z"
         id="path10330"
         sodipodi:nodetypes="cccccccc" />
      <path
         style="opacity:1;fill:#39544b;fill-opacity:1;fill-rule:evenodd;stroke:#0a291e;stroke-width:0.2;stroke-linecap:round;stroke-linejoin:round;stroke-miterlimit:4;stroke-dasharray:none;stroke-opacity:1;paint-order:fill markers stroke"
         d="m 71.874826,81.582058 -0.269811,6.884561 c -1.204469,1.027757 -0.914339,0.462051 -0.995534,2.551781 0.01474,0.709066 -0.530071,1.084704 -1.092938,1.433398 3.46e-4,-2.65277 0.422601,-2.954344 -1.964331,-3.048712 l 0.346779,-8.595543 z"
         id="path10328"
         sodipodi:nodetypes="ccccccc" />
      <path
         style="opacity:1;fill:#78cda4;fill-opacity:1;fill-rule:evenodd;stroke:#00381d;stroke-width:0.2;stroke-linecap:round;stroke-linejoin:round;stroke-miterlimit:4;stroke-dasharray:none;stroke-opacity:1;paint-order:fill markers stroke"
         d="m 79.206883,49.362309 c 9.241135,-3.689658 15.091943,-3.552611 9.367181,13.485387 -2.598206,8.598851 -1.244622,10.291573 -2.398396,12.766941 -2.3281,4.994826 -6.344983,5.376498 -12.407464,5.875607 -2.837167,0.233577 -6.566372,-0.509833 -9.363067,-1.318508 -4.298676,-1.323875 -11.296034,-3.559871 -11.343957,-6.974287 -0.0637,-4.538671 1.709769,-3.457938 5.182213,-1.322623 2.196583,1.350748 4.369573,2.465566 6.469399,2.848741 2.028735,0.370203 2.660496,-0.432514 3.139755,-2.575448 0,0 0.709622,-5.281608 0.407883,-7.915158 -0.576503,-5.031663 -1.017255,-8.318528 0.413073,-12.082404 1.19199,-3.136693 6.85304,-1.318819 10.53338,-2.788248 z"
         id="path1481"
         sodipodi:nodetypes="scsscsssssss" />
      <path
         style="opacity:1;fill:#78cda4;fill-opacity:1;fill-rule:evenodd;stroke:#00381d;stroke-width:0.4;stroke-linecap:round;stroke-linejoin:round;stroke-miterlimit:4;stroke-dasharray:none;stroke-opacity:1;paint-order:markers stroke fill"
         d="M 69.785228,68.364776 57.626811,62.799688 c -0.431759,-0.170579 -0.901027,-0.228631 -1.435876,-0.08994 l -2.131216,0.580331 c -0.450558,0.129671 -0.610009,0.388954 -0.606977,0.814279 l 0.02899,1.652465 c 0.03231,0.353123 0.153476,0.738275 0.589653,0.908535 l 12.129503,5.682493 c 0.822591,0.385372 1.092752,0.4133 1.900601,0.151937 l 1.957308,-0.633247 c 0.647984,-0.209642 0.636853,-0.228113 0.636853,-0.864372 l 2e-6,-1.549026 c 0.0016,-0.632492 -0.15383,-0.735205 -0.910422,-1.088367 z"
         id="path7412"
         sodipodi:nodetypes="cccccccssssccc" />
      <path
         style="opacity:1;fill:#161c2b;fill-opacity:1;fill-rule:evenodd;stroke:#000614;stroke-width:0.2;stroke-linecap:round;stroke-linejoin:round;stroke-miterlimit:4;stroke-dasharray:none;stroke-opacity:1;paint-order:fill markers stroke"
         d="m 54.474096,46.806416 2.415962,1.420292 c 1.148971,0.711006 0.962107,2.597333 0.547548,3.217594 -1.523342,1.955939 -4.774428,2.353226 -7.917935,2.233282 -1.587287,-0.08168 -4.072316,-0.857398 -4.764906,-1.342713 l -3.602297,-2.223868 c 5.55899,-2.385672 9.602954,-3.03187 13.321628,-3.304587 z"
         id="path30743"
         sodipodi:nodetypes="ccccccc" />
      <path
         style="opacity:1;fill:#191b2a;fill-opacity:1;fill-rule:evenodd;stroke:#000614;stroke-width:0.2;stroke-linecap:round;stroke-linejoin:round;stroke-miterlimit:4;stroke-dasharray:none;stroke-opacity:1;paint-order:fill markers stroke"
         d="m 52.770166,42.959665 -0.826148,5.628129 c -1.755644,1.314823 -2.992013,0.682368 -4.208187,-0.02582 l 1.70393,-5.989569 z"
         id="path30613"
         sodipodi:nodetypes="ccccc" />
      <path
         id="rect11954"
         style="opacity:1;fill:#191b2a;fill-opacity:1;fill-rule:evenodd;stroke:#000000;stroke-width:0.207168;stroke-linecap:round;stroke-linejoin:round;paint-order:fill markers stroke"
         d="m 41.359599,28.41735 19.658006,-3.324238 c 0.926612,-0.156693 0.888231,-0.212398 0.888231,0.683586 v 14.385295 c 0,0.938955 0.06483,0.973116 -0.802162,1.157335 l -19.585508,4.161547 c -1.267016,0.269217 -1.239533,0.384079 -1.243296,-0.864452 l -0.04481,-14.86915 c -0.0036,-1.201017 0.02352,-1.142892 1.129539,-1.329923 z"
         sodipodi:nodetypes="sssssssss" />
      <path
         id="path13438"
         style="opacity:1;fill:#544c7a;fill-opacity:1;fill-rule:evenodd;stroke:#00081e;stroke-width:0.191862;stroke-linecap:round;stroke-linejoin:round;stroke-opacity:1;paint-order:fill markers stroke"
         d="m 42.050961,29.023061 18.480071,-3.251967 c 0.869383,-0.152987 0.835007,-0.193784 0.835007,0.623677 v 13.343635 c 0,0.856666 0.06094,0.887832 -0.754095,1.055907 l -18.411917,3.796829 c -1.191095,0.245623 -1.165259,0.350419 -1.168797,-0.788691 l -0.04212,-13.56602 c -0.0033,-1.09576 0.02211,-1.04273 1.061855,-1.21337 z"
         sodipodi:nodetypes="ssssssssss" />
      <path
         id="path28177"
         style="fill:url(#linearGradient52384);fill-opacity:1;fill-rule:evenodd;stroke:#79b9dc;stroke-width:0;stroke-linecap:square;stroke-miterlimit:4;stroke-dasharray:none;stroke-opacity:1;paint-order:fill markers stroke"
         d="m 274.15798,174.7428 c -5.76932,0.81494 -11.44151,1.86811 -17.57226,3.82031 -7.19831,3.06881 -12.92434,7.58967 -14.66602,11.54102 -3.73884,8.48233 -9.26704,22.23184 -15.33398,28.47851 -2.25156,2.31826 -9.04557,-4.80413 -14.30078,-4.41601 -2.79446,0.20638 -6.26292,2.21229 -8.5586,4.80664 0,0 8.84536,7.06265 14.19554,7.98571 5.13795,0.88645 11.25748,0.48937 15.41406,-2.6582 9.18163,-6.9528 14.88281,-31.18164 14.88281,-31.18164 4.05738,-7.97177 12.06265,-8.82293 15.41406,-10.63086 3.35141,-1.80793 13.46485,-7.26367 13.46485,-7.26367 z"
         sodipodi:nodetypes="ccssscssczcc"
         transform="scale(0.26458333)" />
      <path
         style="opacity:1;fill:#fdae99;fill-opacity:1;fill-rule:evenodd;stroke:#bb4000;stroke-width:0.2;stroke-linecap:round;stroke-linejoin:round;stroke-miterlimit:4;stroke-dasharray:none;stroke-opacity:1;paint-order:fill markers stroke"
         d="m 77.812759,45.309022 c -0.207659,-1.71029 -0.01673,-4.217747 0.103269,-6.583362 l -9.733049,-6.015387 c -0.13026,-0.03969 -1.7697,6.917611 -0.309806,10.817368 0.363532,0.971089 1.317998,1.437221 1.765991,1.480703 0.481657,0.04675 0.944246,0.01788 1.874223,-0.448019 0.284284,1.637514 0.02085,2.399394 0,2.8657 3.385889,1.142045 6.348342,1.252348 6.299372,-2.117003 z"
         id="path59104"
         sodipodi:nodetypes="cccssccc" />
      <path
         style="opacity:1;fill:#231514;fill-opacity:1;fill-rule:evenodd;stroke:#000000;stroke-width:0.2;stroke-linecap:round;stroke-linejoin:round;stroke-miterlimit:4;stroke-dasharray:none;stroke-opacity:1;paint-order:fill markers stroke"
         d="m 76.45383,44.579812 c 1.027518,-1.826706 4.519006,-5.095419 4.05271,-8.068911 -0.538333,-3.432859 -3.521528,-6.80632 -8.214953,-6.681493 -3.001966,0.07984 -6.972748,2.087597 -6.185737,6.549825 0.239715,1.098708 0.746924,1.635165 1.516911,2.069924 1.265025,0.714273 2.091478,1.534752 2.876168,2.064873 0.587122,-0.572167 -0.123121,-1.528996 0.406086,-2.234626 0.357528,-0.525458 0.912475,-0.471849 1.384958,-0.202029 0.378888,0.216371 0.748968,1.019938 0.656103,1.585185 -0.133746,0.814089 -0.592809,1.619168 -1.182356,1.879187 0.657077,0.329411 1.5855,0.898348 1.949081,1.423423 0.539703,0.661414 0.795064,0.831592 1.293064,1.059649 0.366451,0.107529 0.805696,0.263586 1.447965,0.554993 z"
         id="path61805"
         sodipodi:nodetypes="csscsccsscccc" />
      <path
         style="opacity:1;fill:#3dce1e;fill-opacity:1;fill-rule:evenodd;stroke:#000000;stroke-width:0;stroke-linecap:square;stroke-linejoin:miter;stroke-miterlimit:4;stroke-dasharray:none;stroke-opacity:1;paint-order:fill markers stroke"
         d="m 47.556703,32.232282 v -0.720049 c -0.549282,-0.01211 -1.049188,0.257616 -1.08788,0.903631 l 8.29e-4,1.595208 c -0.0619,0.629798 -0.266929,0.780437 -0.750864,1.233489 0.354584,0.391791 0.742316,0.819954 0.748856,1.194774 l 0.04888,1.868597 c 0.01419,0.534292 0.569273,0.537095 1.02526,0.289946 l 0.02344,-0.696049 c -0.470043,0.188263 -0.550507,0.181045 -0.540751,-0.183248 l 0.01255,-1.462531 c -0.0058,-0.459844 -0.243538,-0.718456 -0.497895,-1.042527 0.332092,-0.320993 0.494428,-0.585061 0.543939,-1.142808 l -0.03113,-1.281271 c -0.0065,-0.463843 0.270721,-0.515905 0.504768,-0.557163 z"
         id="path72260"
         sodipodi:nodetypes="cccccccccccccccc" />
      <path
         style="fill:#3dce1e;fill-rule:evenodd;stroke:#000000;stroke-width:0;stroke-linecap:square;paint-order:fill markers stroke"
         d="M 64.362102,81.144064 Z"
         id="path1782" />
      <ellipse
         style="fill:#1a322a;fill-opacity:1;fill-rule:evenodd;stroke:#00150e;stroke-width:0.2;stroke-linecap:square;stroke-miterlimit:4;stroke-dasharray:none;stroke-opacity:1;paint-order:fill markers stroke"
         id="path26558"
         cx="83.804924"
         cy="76.363098"
         rx="0.57424307"
         ry="1.570379"
         transform="rotate(5.3287428)" />
      <circle
         style="fill:#1a322a;fill-opacity:1;fill-rule:evenodd;stroke:#00150e;stroke-width:0.2;stroke-linecap:square;stroke-miterlimit:4;stroke-dasharray:none;stroke-opacity:1;paint-order:fill markers stroke"
         id="path27341"
         cx="56.200798"
         cy="88.983208"
         r="1.7070723" />
      <circle
         style="fill:#1a322a;fill-opacity:1;fill-rule:evenodd;stroke:#00150e;stroke-width:0.2;stroke-linecap:square;stroke-miterlimit:4;stroke-dasharray:none;stroke-opacity:1;paint-order:fill markers stroke"
         id="circle27343"
         cx="83.281929"
         cy="91.933296"
         r="1.7070723" />
      <path
         style="opacity:1;fill:#3dce1e;fill-opacity:1;fill-rule:evenodd;stroke:#000000;stroke-width:0;stroke-linecap:square;stroke-linejoin:miter;stroke-miterlimit:4;stroke-dasharray:none;stroke-opacity:1;paint-order:fill markers stroke"
         d="m 55.770862,36.181355 v 0.701929 c 0.549282,0.0118 1.049188,-0.251133 1.08788,-0.880891 l -8.29e-4,-1.555065 c 0.0619,-0.613949 0.266929,-0.760798 0.750864,-1.202449 -0.354584,-0.381931 -0.742316,-0.79932 -0.748856,-1.164708 l -0.04888,-1.821575 c -0.01419,-0.520846 -0.569273,-0.523578 -1.02526,-0.282649 l -0.02344,0.678533 c 0.470043,-0.183525 0.550507,-0.176489 0.540751,0.178637 l -0.01255,1.425727 c 0.0058,0.448272 0.243538,0.700376 0.497895,1.016292 -0.332092,0.312915 -0.494428,0.570338 -0.543939,1.11405 l 0.03113,1.249028 c 0.0065,0.452171 -0.270721,0.502922 -0.504768,0.543142 z"
         id="path33039"
         sodipodi:nodetypes="cccccccccccccccc" />
      <path
         style="fill:#3dce1e;fill-opacity:1;fill-rule:evenodd;stroke:#000000;stroke-width:0;stroke-linecap:square;stroke-miterlimit:4;stroke-dasharray:none;paint-order:fill markers stroke"
         d="m 53.166458,31.996843 0.661719,-0.08101 -0.113513,3.761833 0.464078,-0.115345 -0.0075,0.690191 -1.6475,0.392052 0.06198,-0.70081 0.462591,-0.11632 0.08814,-2.858072 -0.876073,1.418983 -0.393484,-0.315045 z"
         id="path99504"
         sodipodi:nodetypes="cccccccccccc" />
      <path
         id="path102762"
         style="fill:#3dce1e;fill-rule:evenodd;stroke:#000000;stroke-width:0;stroke-linecap:square;paint-order:fill markers stroke"
         d="m 50.247626,32.69177 c -0.06189,7.32e-4 -0.127307,0.0058 -0.196371,0.01602 -0.884036,0.130377 -1.0673,1.055566 -1.084689,2.505792 -0.01739,1.450227 0.299334,2.082284 1.084689,1.919261 0.785355,-0.16302 1.093973,-0.884221 1.131713,-2.399852 0.03479,-1.397223 -0.205031,-2.049876 -0.935342,-2.041218 z m -0.09612,0.714684 c 0.321794,-0.0059 0.427706,0.43805 0.412379,1.388028 -0.01663,1.030489 -0.152633,1.521103 -0.498679,1.631942 -0.346043,0.110839 -0.485669,-0.319328 -0.478006,-1.305346 0.0077,-0.986017 0.08848,-1.61513 0.478006,-1.703773 0.03043,-0.0069 0.05903,-0.01035 0.0863,-0.01085 z" />
      <path
         id="path104273"
         style="opacity:1;fill:url(#linearGradient63324);fill-opacity:1;fill-rule:evenodd;stroke:#000000;stroke-width:0;stroke-linecap:round;stroke-linejoin:round;stroke-miterlimit:4;stroke-dasharray:none;stroke-opacity:1;paint-order:fill markers stroke;filter:url(#filter62764)"
         d="m 341.57341,192.14541 c -0.27908,-0.17266 -0.55301,-0.34671 -0.84961,-0.51367 -0.44631,-0.25122 -0.9126,-0.49597 -1.39844,-0.72851 -0.24292,-0.11627 1.10319,1.89652 0.85042,1.78622 -0.25277,-0.1103 -0.51083,-0.21684 -0.77344,-0.32031 -0.2626,-0.10347 -0.53032,-0.20306 -0.80273,-0.29883 -0.27241,-0.0958 -0.54984,-0.18819 -0.83203,-0.27539 -0.2822,-0.0872 -0.56937,-0.17027 -0.86133,-0.24804 -0.29196,-0.0778 -0.58892,-0.14932 -0.89063,-0.2168 -0.3017,-0.0675 -0.60654,-0.13118 -0.91796,-0.1875 -0.31143,-0.0563 -0.6281,-0.1061 -0.94922,-0.15039 -0.32113,-0.0443 -0.64045,-0.0806 -0.95899,-0.10938 -0.31854,-0.0288 -0.6368,-0.0504 -0.95312,-0.0644 -0.31633,-0.014 -0.63084,-0.0195 -0.94531,-0.0195 -0.31448,-5e-5 -0.62842,0.006 -0.94141,0.0195 -0.31299,0.0131 -0.62562,0.033 -0.9375,0.0586 -0.31188,0.0256 -0.62441,0.0566 -0.93555,0.0937 -0.31113,0.0372 -0.62088,0.0789 -0.93164,0.12696 -0.31075,0.0481 -0.62089,0.10202 -0.93164,0.16015 -0.62149,0.11627 -1.24353,0.25239 -1.86719,0.4043 -0.62365,0.15191 -1.25015,0.32063 -1.8789,0.50195 -0.62876,0.18133 -1.25969,0.37557 -1.89649,0.58008 -0.6368,0.20451 -1.27799,0.41916 -1.92578,0.64063 -1.29557,0.44293 -2.61744,0.91333 -3.97461,1.38671 -0.67858,0.2367 -1.36605,0.47403 -2.06445,0.70899 -0.6984,0.23496 -1.40776,0.46636 -2.12891,0.69336 -0.72115,0.227 -1.45433,0.44929 -2.20117,0.66211 -0.74684,0.21281 -1.50772,0.41697 -2.2832,0.60937 -0.77548,0.1924 -1.566,0.37331 -2.37305,0.53907 -0.40353,0.0829 -0.81068,0.16128 -1.22265,0.23632 -0.41198,0.0751 -0.82727,0.14645 -1.24805,0.21289 -0.84157,0.13288 -1.65769,0.26439 -2.44727,0.39649 -0.78958,0.1321 -1.55417,0.26509 -2.29297,0.40039 -0.73879,0.1353 -1.45139,0.27353 -2.14062,0.41601 -0.68923,0.14249 -1.35327,0.28972 -1.99414,0.44336 -0.64087,0.15365 -1.25785,0.31364 -1.85156,0.48243 -0.59372,0.16878 -1.16511,0.3453 -1.71289,0.5332 -0.2739,0.094 -0.54206,0.19154 -0.80469,0.29101 -0.26264,0.0995 -0.51996,0.20115 -0.77149,0.30664 -0.25153,0.1055 -0.4977,0.21416 -0.73828,0.32618 -0.24057,0.11202 -0.47531,0.22666 -0.70508,0.3457 -0.22977,0.11904 -0.4547,0.24259 -0.67382,0.36914 -0.21912,0.12655 -0.43201,0.25606 -0.64063,0.39063 -0.20862,0.13456 -0.41306,0.27489 -0.61133,0.41796 -0.19827,0.14308 -0.39005,0.28933 -0.57812,0.44141 -0.18808,0.15209 -0.37276,0.30911 -0.55078,0.4707 -0.17803,0.16159 -0.34945,0.32841 -0.51758,0.5 -0.16813,0.1716 -0.33185,0.34721 -0.49024,0.5293 -0.15839,0.18209 -0.31214,0.36941 -0.46093,0.5625 -0.1488,0.19309 -0.29229,0.39307 -0.43164,0.59766 -0.13936,0.20458 -0.27423,0.41428 -0.4043,0.63086 -0.13007,0.21657 -0.25602,0.4389 -0.37695,0.66796 -0.12093,0.22907 -0.23767,0.46498 -0.34961,0.70704 -0.11195,0.24205 -0.21916,0.49055 -0.32227,0.74609 -0.10311,0.25554 -0.20245,0.51759 -0.29687,0.78711 -0.0944,0.26952 -0.18364,0.54608 -0.26954,0.83008 -0.0859,0.284 -0.16858,0.57602 -0.24609,0.875 -0.0775,0.29898 -0.14564,0.61142 -0.20508,0.9375 -0.0594,0.32608 -0.10978,0.66557 -0.15234,1.01758 -0.0426,0.35201 -0.0766,0.71697 -0.10352,1.09375 -0.0269,0.37677 -0.0461,0.76564 -0.0586,1.16601 -0.0125,0.40037 -0.0184,0.81158 -0.0176,1.23438 7.8e-4,0.42279 0.009,0.85672 0.0215,1.30078 0.0128,0.44405 0.0311,0.89913 0.0547,1.36328 0.0236,0.46415 0.0527,0.9388 0.0859,1.42187 0.0664,0.96615 0.15046,1.96908 0.24805,3.00391 0.0976,1.03483 0.20908,2.10113 0.32812,3.19531 0.23808,2.18836 0.50768,4.48578 0.77344,6.85547 0.13288,1.18484 0.26536,2.38736 0.39063,3.60352 0.12526,1.21616 0.24359,2.44546 0.35156,3.68359 0.10796,1.23813 0.20613,2.48556 0.28711,3.73633 0.0405,0.62538 0.0755,1.25212 0.10742,1.8789 0.0319,0.62679 0.0599,1.25384 0.082,1.88086 0.0222,0.62703 0.0396,1.25281 0.0508,1.87891 0.0112,0.6261 0.0167,1.25296 0.0156,1.87695 -10e-4,0.624 -0.009,1.24646 -0.0234,1.86719 -0.0145,0.62073 -0.0354,1.23917 -0.0645,1.85547 -0.0291,0.6163 -0.0664,1.22915 -0.11133,1.83984 -0.0449,0.6107 -0.0982,1.21834 -0.16016,1.82227 -0.0619,0.60393 -0.13269,1.20479 -0.21289,1.80078 -0.0802,0.59599 -0.16987,1.18851 -0.26953,1.77539 -0.19932,1.17377 -0.39459,2.30721 -0.58984,3.40234 -0.19526,1.09514 -0.38986,2.1521 -0.58399,3.17188 -0.19413,1.01978 -0.38804,2.0015 -0.58398,2.94922 -0.19595,0.94772 -0.395,1.86129 -0.59571,2.74023 -0.2007,0.87895 -0.40292,1.72366 -0.61132,2.53711 -0.20841,0.81346 -0.42159,1.59445 -0.64063,2.34571 -0.21904,0.75125 -0.44511,1.47367 -0.67773,2.16601 -0.23263,0.69234 -0.47156,1.35547 -0.72071,1.99219 -0.12457,0.31836 -0.2516,0.63048 -0.38086,0.93555 -0.12925,0.30506 -0.26217,0.60234 -0.39648,0.89453 -0.13431,0.29219 -0.27043,0.5777 -0.41016,0.85742 -0.13972,0.27972 -0.28222,0.5546 -0.42773,0.82226 -0.14551,0.26767 -0.29365,0.52914 -0.44531,0.78516 -0.15167,0.25602 -0.30666,0.50522 -0.46485,0.75 -0.15818,0.24478 -0.3193,0.48479 -0.48437,0.71875 -0.16507,0.23396 -0.33549,0.46201 -0.50782,0.68555 -0.17232,0.22354 -0.34739,0.44271 -0.52734,0.65625 -0.17995,0.21354 -0.36479,0.423 -0.55273,0.62695 -0.18795,0.20395 -0.37987,0.40289 -0.57617,0.59766 -0.19631,0.19476 -0.39654,0.38431 -0.60157,0.57031 -0.20503,0.186 -0.41478,0.36728 -0.6289,0.54492 -0.21413,0.17764 -0.43267,0.3518 -0.65625,0.52149 -0.22359,0.16969 -0.45214,0.33589 -0.68555,0.49804 -0.23342,0.16216 -0.47123,0.31959 -0.71484,0.47461 -0.24362,0.15503 -0.50185,0.30636 -0.77539,0.45117 -0.27355,0.14482 -0.56223,0.28302 -0.86329,0.41797 -0.30105,0.13496 -0.61526,0.26519 -0.9414,0.39063 -0.32615,0.12544 -0.66487,0.24701 -1.01367,0.36328 -0.34881,0.11627 -0.70712,0.22849 -1.07618,0.33594 -0.36905,0.10744 -0.74789,0.20962 -1.13476,0.30859 -0.38688,0.099 -0.78328,0.19432 -1.18555,0.28516 -0.40227,0.0908 -0.81131,0.17671 -1.22656,0.25976 -0.8305,0.1661 -1.68487,0.31805 -2.55274,0.45508 -0.86787,0.13703 -1.7489,0.26036 -2.63476,0.37109 -0.88587,0.11074 -1.77568,0.20772 -2.66016,0.29493 -0.88448,0.0872 -1.76323,0.16402 -2.62695,0.23046 -0.86372,0.0664 -1.71158,0.12343 -2.53516,0.17188 -0.82357,0.0484 -1.62266,0.0879 -2.38672,0.12109 -0.76405,0.0332 -1.49452,0.0593 -2.17968,0.0801 -0.68516,0.0208 -1.32523,0.0358 -1.91211,0.0469 -1.08361,0.0204 -3.52203,-2.09958 -4.17659,-2.09873 2.41526,0.78261 4.74287,1.50772 6.88672,2.16797 10.57018,3.05641 24.66356,5.86523 35.38671,4.98242 22.91332,-1.8864 38.09542,-3.32895 46.89453,-22.20703 4.36073,-9.35572 -0.75553,-15.75236 9.06446,-48.25195 6.78623,-20.19713 9.26717,-34.10936 8.40039,-43.26368 z"
         transform="scale(0.26458333)"
         sodipodi:nodetypes="cssssssssssssssssssssssssssssssssssssssssssssssssssssssssssssssssssssssssssssssssssssssssssssssssssssssssssssssssssssssssccsscc" />
      <path
         id="path48096"
         style="fill:#1e4c36;fill-opacity:1;fill-rule:evenodd;stroke:#1e4c36;stroke-width:0.0755906;stroke-linecap:round;stroke-miterlimit:4;stroke-dasharray:none;stroke-opacity:1;paint-order:markers stroke fill"
         d="m 266.61719,260.13086 -12.26563,4.32812 -8.42578,3.57813 4.18164,5.35547 0.10156,0.0488 c 3.10901,1.45652 4.12836,1.56204 7.18164,0.57421 l 7.39844,-2.39453 c 2.44908,-0.79234 2.40625,-0.86086 2.40625,-3.26562 V 262.5 c 0.003,-1.13776 -0.13114,-1.8206 -0.57812,-2.36914 z"
         transform="scale(0.26458333)" />
      <path
         id="path39754"
         style="fill:#288458;fill-opacity:1;fill-rule:evenodd;stroke:#288458;stroke-width:0.0377953;stroke-linecap:round;stroke-miterlimit:4;stroke-dasharray:none;stroke-opacity:1;paint-order:fill markers stroke"
         d="m 202.41602,240.50391 c -0.27904,0.47813 -0.39571,1.06816 -0.39063,1.78125 l 0.10938,6.24414 c 0.12211,1.33463 0.58192,2.79009 2.23046,3.43359 l 45.84375,21.47852 c 1.49392,0.69987 2.5038,1.079 3.49024,1.18359 -0.0671,-0.43355 -0.88593,-5.88308 -0.0762,-8.51172 0.17417,-0.56541 0.41949,-1.12881 0.72851,-1.6543 z"
         sodipodi:nodetypes="ccccccscc"
         transform="scale(0.26458333)" />
      <path
         id="path107053"
         style="opacity:1;fill:#58332e;fill-opacity:1;fill-rule:evenodd;stroke:#3e0700;stroke-width:0.755906;stroke-linecap:round;stroke-linejoin:round;stroke-miterlimit:4;stroke-dasharray:none;stroke-opacity:1;paint-order:fill markers stroke"
         d="m 184.8418,251.53125 0.12695,-8.98242 -80.83984,-39.54102 c -0.043,0.28865 -0.0652,0.59864 -0.0469,0.97461 l 2.76758,93.03711 c 0.0836,2.59615 0.0381,2.90061 2.1875,4.01758 l 40.15625,20.86914 c 0.56454,0.29336 1.0127,0.51181 1.4043,0.66016 v -8.08399 l -37.73828,-20.55273 -0.53126,-45.00196 c -0.937,-10.95478 29.3766,-17.93617 41.45508,-13.39846 l 28.64649,15.41015 c 0.81507,0.43721 1.59907,0.60323 2.41211,0.5918 z"
         sodipodi:nodetypes="ccccccccccccccc"
         transform="scale(0.26458333)" />
      <path
         id="path109552"
         style="fill:#1a322a;fill-opacity:1;fill-rule:evenodd;stroke:#00150e;stroke-width:0.755906;stroke-linecap:square;stroke-miterlimit:4;stroke-dasharray:none;stroke-opacity:1;paint-order:fill markers stroke"
         d="m 237.51155,366.26371 c -2.77397,1.09373 -2.78626,3.06652 -2.86143,5.12998 l 0.12457,6.63846 c -0.0961,1.99418 0.21227,3.81497 2.43109,4.81701 3.78426,-0.63561 3.79547,-3.99226 4.01492,-6.71052 0.2699,-3.34297 0.21313,-8.28791 -1.45272,-9.54535 -0.86959,-0.65639 -1.54414,-0.61042 -2.25643,-0.32958 z"
         transform="scale(0.26458333)"
         sodipodi:nodetypes="scccsss" />
    </g>
  </g>
</svg>
