<?xml version="1.0" encoding="UTF-8" standalone="no"?>
<!-- Created with Inkscape (http://www.inkscape.org/) -->

<svg
   width="48"
   height="48"
   viewBox="0 0 12.7 12.7"
   version="1.1"
   id="svg5"
   inkscape:version="1.1.1 (3bf5ae0d25, 2021-09-20)"
   sodipodi:docname="instagram icon.svg"
   xmlns:inkscape="http://www.inkscape.org/namespaces/inkscape"
   xmlns:sodipodi="http://sodipodi.sourceforge.net/DTD/sodipodi-0.dtd"
   xmlns="http://www.w3.org/2000/svg"
   xmlns:svg="http://www.w3.org/2000/svg">
  <sodipodi:namedview
     id="namedview7"
     pagecolor="#ffffff"
     bordercolor="#999999"
     borderopacity="1"
     inkscape:pageshadow="0"
     inkscape:pageopacity="0"
     inkscape:pagecheckerboard="0"
     inkscape:document-units="mm"
     showgrid="true"
     units="px"
     inkscape:snap-object-midpoints="true"
     inkscape:object-paths="true"
     inkscape:snap-smooth-nodes="true"
     inkscape:snap-bbox="true"
     inkscape:zoom="8"
     inkscape:cx="10.4375"
     inkscape:cy="36"
     inkscape:window-width="1520"
     inkscape:window-height="1042"
     inkscape:window-x="0"
     inkscape:window-y="0"
     inkscape:window-maximized="0"
     inkscape:current-layer="layer1">
    <inkscape:grid
       type="xygrid"
       id="grid824"
       originx="6.35"
       originy="6.35"
       dotted="true" />
  </sodipodi:namedview>
  <defs
     id="defs2" />
  <g
     inkscape:label="Layer 1"
     inkscape:groupmode="layer"
     id="layer1">
    <path
       id="rect1731"
       style="fill:#000000;fill-rule:evenodd;stroke:#000000;stroke-width:0;stroke-linecap:square;stroke-miterlimit:4;stroke-dasharray:none;paint-order:fill markers stroke"
       d="M 9 0 C 4.0140003 0 -1.1842379e-15 4.0140003 0 9 L 0 39 C 0 43.986 4.0140003 48 9 48 L 39 48 C 43.986 48 48 43.986 48 39 L 48 9 C 48 4.0140003 43.986 -1.1842379e-15 39 0 L 9 0 z M 10.845703 5.7871094 C 19.549684 5.7870813 28.284999 5.7871094 37 5.7871094 C 40.324 5.7871094 42.212891 7.6759998 42.212891 11 L 42.212891 37 C 42.212891 40.324 40.324 42.082031 37 42.082031 L 11 42.082031 C 7.6759998 42.082031 6.0488281 40.324 6.0488281 37 L 6.0488281 11 C 6.0488281 7.7279373 7.6258076 5.8451309 10.845703 5.7871094 z M 36 8 C 33.790862 7.9999998 32 9.7908625 32 12 C 32 14.209138 33.790862 16 36 16 C 38.209137 15.999999 40 14.209137 40 12 C 40 9.7908632 38.209137 8.0000009 36 8 z M 24 14 A 9.9999999 9.9999999 0 0 0 14 24 A 9.9999999 9.9999999 0 0 0 24 34 A 9.9999999 9.9999999 0 0 0 34 24 A 9.9999999 9.9999999 0 0 0 24 14 z M 24 19 A 4.9999997 4.9999997 0 0 1 29 24 A 4.9999997 4.9999997 0 0 1 24 29 A 4.9999997 4.9999997 0 0 1 19 24 A 4.9999997 4.9999997 0 0 1 24 19 z "
       transform="scale(0.26458333)"
       inkscape:export-filename="C:\Users\User\Desktop\inkscape icons\instagram icon.png"
       inkscape:export-xdpi="96"
       inkscape:export-ydpi="96" />
  </g>
</svg>
